<svg width="86" height="14" viewBox="0 0 86 14" fill="none" xmlns="http://www.w3.org/2000/svg">
<path d="M6.73467 0.502901C6.84723 0.289557 7.15277 0.289558 7.26533 0.502902L9.0707 3.92471C9.11411 4.00699 9.19323 4.06447 9.28489 4.08033L13.0971 4.73994C13.3348 4.78106 13.4292 5.07165 13.2611 5.24463L10.5647 8.01904C10.4998 8.08575 10.4696 8.17876 10.4828 8.27083L11.0336 12.1003C11.0679 12.3391 10.8207 12.5187 10.6042 12.4122L7.13237 10.7051C7.0489 10.664 6.9511 10.664 6.86763 10.7051L3.39576 12.4122C3.1793 12.5187 2.93211 12.3391 2.96644 12.1003L3.51716 8.27083C3.5304 8.17876 3.50018 8.08575 3.43534 8.01904L0.738899 5.24463C0.57078 5.07165 0.665199 4.78106 0.902885 4.73994L4.71511 4.08033C4.80677 4.06447 4.88589 4.00699 4.9293 3.92471L6.73467 0.502901Z" fill="#FFC41F"/>
<path d="M24.7347 0.502901C24.8472 0.289557 25.1528 0.289558 25.2653 0.502902L27.0707 3.92471C27.1141 4.00699 27.1932 4.06447 27.2849 4.08033L31.0971 4.73994C31.3348 4.78106 31.4292 5.07165 31.2611 5.24463L28.5647 8.01904C28.4998 8.08575 28.4696 8.17876 28.4828 8.27083L29.0336 12.1003C29.0679 12.3391 28.8207 12.5187 28.6042 12.4122L25.1324 10.7051C25.0489 10.664 24.9511 10.664 24.8676 10.7051L21.3958 12.4122C21.1793 12.5187 20.9321 12.3391 20.9664 12.1003L21.5172 8.27083C21.5304 8.17876 21.5002 8.08575 21.4353 8.01904L18.7389 5.24463C18.5708 5.07165 18.6652 4.78106 18.9029 4.73994L22.7151 4.08033C22.8068 4.06447 22.8859 4.00699 22.9293 3.92471L24.7347 0.502901Z" fill="#FFC41F"/>
<path d="M42.7347 0.502901C42.8472 0.289557 43.1528 0.289558 43.2653 0.502902L45.0707 3.92471C45.1141 4.00699 45.1932 4.06447 45.2849 4.08033L49.0971 4.73994C49.3348 4.78106 49.4292 5.07165 49.2611 5.24463L46.5647 8.01904C46.4998 8.08575 46.4696 8.17876 46.4828 8.27083L47.0336 12.1003C47.0679 12.3391 46.8207 12.5187 46.6042 12.4122L43.1324 10.7051C43.0489 10.664 42.9511 10.664 42.8676 10.7051L39.3958 12.4122C39.1793 12.5187 38.9321 12.3391 38.9664 12.1003L39.5172 8.27083C39.5304 8.17876 39.5002 8.08575 39.4353 8.01904L36.7389 5.24463C36.5708 5.07165 36.6652 4.78106 36.9029 4.73994L40.7151 4.08033C40.8068 4.06447 40.8859 4.00699 40.9293 3.92471L42.7347 0.502901Z" fill="#FFC41F"/>
<path d="M60.7347 0.502901C60.8472 0.289557 61.1528 0.289558 61.2653 0.502902L63.0707 3.92471C63.1141 4.00699 63.1932 4.06447 63.2849 4.08033L67.0971 4.73994C67.3348 4.78106 67.4292 5.07165 67.2611 5.24463L64.5647 8.01904C64.4998 8.08575 64.4696 8.17876 64.4828 8.27083L65.0336 12.1003C65.0679 12.3391 64.8207 12.5187 64.6042 12.4122L61.1324 10.7051C61.0489 10.664 60.9511 10.664 60.8676 10.7051L57.3958 12.4122C57.1793 12.5187 56.9321 12.3391 56.9664 12.1003L57.5172 8.27083C57.5304 8.17876 57.5002 8.08575 57.4353 8.01904L54.7389 5.24463C54.5708 5.07165 54.6652 4.78106 54.9029 4.73994L58.7151 4.08033C58.8068 4.06447 58.8859 4.00699 58.9293 3.92471L60.7347 0.502901Z" fill="#FFC41F"/>
<path d="M78.7347 0.502901C78.8472 0.289557 79.1528 0.289558 79.2653 0.502902L81.0707 3.92471C81.1141 4.00699 81.1932 4.06447 81.2849 4.08033L85.0971 4.73994C85.3348 4.78106 85.4292 5.07165 85.2611 5.24463L82.5647 8.01904C82.4998 8.08575 82.4696 8.17876 82.4828 8.27083L83.0336 12.1003C83.0679 12.3391 82.8207 12.5187 82.6042 12.4122L79.1324 10.7051C79.0489 10.664 78.9511 10.664 78.8676 10.7051L75.3958 12.4122C75.1793 12.5187 74.9321 12.3391 74.9664 12.1003L75.5172 8.27083C75.5304 8.17876 75.5002 8.08575 75.4353 8.01904L72.7389 5.24463C72.5708 5.07165 72.6652 4.78106 72.9029 4.73994L76.7151 4.08033C76.8068 4.06447 76.8859 4.00699 76.9293 3.92471L78.7347 0.502901Z" fill="#EDEDEF"/>
</svg>
